<svg width="95" height="101" viewBox="0 0 95 101" fill="none" xmlns="http://www.w3.org/2000/svg">
<g clip-path="url(#clip0)">
<path d="M11.8457 100.064L10.1216 94.3828H10.7579L12.4331 99.9341C12.531 100.253 12.6941 100.432 12.9607 100.432C13.2272 100.432 13.3958 100.259 13.4882 99.9341L15.1525 94.3828H15.7888L14.0647 100.064C13.8744 100.686 13.4665 101 12.9607 101C12.444 101 12.0415 100.692 11.8457 100.064Z" fill="white"/>
<path d="M21.5106 100.892C21.0483 100.892 20.896 100.659 20.896 100.28V94.9996C20.896 94.6209 21.0483 94.3882 21.5106 94.3882H25.1437V94.9726H21.5106V97.3478H24.9751V97.9322H21.5106V100.307H25.2307V100.892H21.5106Z" fill="white"/>
<path d="M30.5933 100.892V95.1349C30.5933 94.5884 30.9087 94.2854 31.3601 94.2854C31.7245 94.2854 31.9475 94.4423 32.1107 94.7724L34.7757 100.199C34.8736 100.394 34.928 100.47 35.064 100.47C35.1782 100.47 35.238 100.383 35.238 100.205V94.3774H35.8254V100.145C35.8254 100.692 35.4719 100.984 35.0857 100.984C34.7485 100.984 34.482 100.838 34.3134 100.497L31.6375 95.0213C31.5614 94.8535 31.5015 94.7778 31.3873 94.7778C31.2405 94.7778 31.1752 94.886 31.1752 95.0916V100.886H30.5933V100.892Z" fill="white"/>
<path d="M45.4688 94.9726H43.4183V100.897H42.8037V94.9726H40.7642V94.3882H45.4688V94.9726Z" fill="white"/>
<path d="M50.3145 98.1161V94.3828H50.929V98.1053C50.929 99.5175 51.5436 100.378 52.8326 100.378C54.1216 100.378 54.7362 99.5229 54.7362 98.1053V94.3828H55.3508V98.1161C55.3508 99.8692 54.535 100.973 52.8326 100.973C51.1248 100.973 50.3145 99.8692 50.3145 98.1161Z" fill="white"/>
<path d="M61.1323 100.892V94.3828H63.161C64.4391 94.3828 65.4616 94.978 65.4616 96.2603C65.4616 97.2234 64.8579 97.8781 63.8844 98.0404C64.499 98.2947 64.8253 98.9169 65.2386 99.7664L65.788 100.886H65.1244L64.6132 99.853C64.1618 98.9386 63.8028 98.2731 62.7585 98.2731H61.7415V100.886H61.1323V100.892ZM61.7469 94.9726V97.7103H63.1393C64.1128 97.7103 64.8307 97.2504 64.8307 96.3198C64.8307 95.373 64.0693 94.978 63.1556 94.978H61.7469V94.9726Z" fill="white"/>
<path d="M71.7381 100.892C71.2758 100.892 71.1235 100.659 71.1235 100.28V94.9996C71.1235 94.6209 71.2758 94.3882 71.7381 94.3882H75.3713V94.9726H71.7381V97.3478H75.2026V97.9322H71.7381V100.307H75.4583V100.892H71.7381Z" fill="white"/>
<path d="M80.4399 99.6365L80.9566 99.3714C81.234 100.015 81.8704 100.372 82.6971 100.372C83.5836 100.372 84.2526 99.9125 84.2526 99.1171C84.2526 98.2514 83.4857 98.0837 82.6372 97.9105C81.6637 97.6941 80.5596 97.4019 80.5596 96.1088C80.5596 95.0862 81.4951 94.3179 82.61 94.3179C83.5346 94.3179 84.3613 94.767 84.7149 95.6218L84.2036 95.8924C83.9154 95.2593 83.3497 94.9076 82.5883 94.9076C81.8268 94.9076 81.1742 95.4054 81.1742 96.0872C81.1742 96.942 81.9628 97.1206 82.8113 97.3046C83.7848 97.521 84.8671 97.8132 84.8671 99.1171C84.8671 100.226 83.9262 100.968 82.6916 100.968C81.68 100.973 80.7935 100.497 80.4399 99.6365Z" fill="white"/>
<path d="M0 82.5768H5.11794C5.50409 84.1405 6.668 85.201 9.81164 85.201C12.0361 85.201 13.0913 84.6708 13.0913 83.6049C13.0913 82.2901 11.5738 82.1873 8.64774 81.4731C3.14364 80.1583 0.886529 78.9193 0.886529 75.5485C0.886529 71.431 4.27492 69.0557 9.38742 69.0557C14.7827 69.0557 17.4314 71.6799 18.1004 75.2996H12.9825C12.5963 74.0551 11.5358 73.3139 9.20793 73.3139C7.19557 73.3139 5.96095 73.882 5.96095 74.9479C5.96095 75.8731 6.84204 76.0462 9.6648 76.6847C15.2015 77.9616 18.3071 79.0275 18.3071 82.9285C18.3071 87.2949 14.4618 89.4213 9.6648 89.4213C4.48159 89.4267 0.707048 86.8729 0 82.5768Z" fill="white"/>
<path d="M40.6554 69.4832L40.6227 88.9993H35.5755V86.3751C34.2376 88.2201 32.2252 89.4267 29.5058 89.4267C24.4259 89.4267 20.6514 85.2389 20.6514 79.2439C20.6514 73.2111 24.4966 69.0611 29.4731 69.0611C32.2252 69.0611 34.2702 70.338 35.6136 72.2209V69.4886H40.6554V69.4832ZM35.6081 79.2385C35.6081 76.0462 33.4544 73.882 30.6316 73.882C27.8089 73.882 25.7258 76.0462 25.7258 79.2385C25.7258 82.4686 27.8415 84.595 30.6316 84.595C33.4598 84.6004 35.6081 82.4686 35.6081 79.2385Z" fill="white"/>
<path d="M44.6743 69.4831H49.7215V88.9993H44.6743V69.4831Z" fill="white"/>
<path d="M71.8797 76.755V88.9993H66.8325V77.8534C66.8325 75.2996 65.8807 73.8766 63.1993 73.8766C60.344 73.8766 58.8265 75.543 58.8265 78.7407V88.9993H53.7793V69.4831H58.8265V72.1452C60.2352 70.1595 62.1769 69.0557 64.8582 69.0557C69.231 69.0557 71.8797 71.9666 71.8797 76.755Z" fill="white"/>
<path d="M94.9998 79.2385C94.9998 85.1307 90.5563 89.4213 84.8727 89.4213C79.2272 89.4213 74.7837 85.0928 74.7837 79.2385C74.7837 73.3463 79.2979 69.0557 84.8727 69.0557C90.4801 69.0557 94.9998 73.3463 94.9998 79.2385ZM79.8636 79.2385C79.8636 82.4686 82.05 84.595 84.8727 84.595C87.6955 84.595 89.8819 82.4632 89.8819 79.2385C89.8819 76.0462 87.6955 73.882 84.8727 73.882C82.05 73.882 79.8636 76.0462 79.8636 79.2385Z" fill="white"/>
<path d="M74.7731 15.4744L47.4974 29.872L20.2217 15.4744L47.4974 1.08212L74.7731 15.4744Z" stroke="white" stroke-width="4" stroke-miterlimit="10" stroke-linecap="round" stroke-linejoin="round"/>
<path d="M74.7731 30.7594L47.4974 45.1516L20.2217 30.7594L47.4974 16.3617L74.7731 30.7594Z" stroke="white" stroke-width="4" stroke-miterlimit="10" stroke-linecap="round" stroke-linejoin="round"/>
<path d="M74.7731 44.2643L47.4974 58.6619L20.2217 44.2643L47.4974 29.872L74.7731 44.2643Z" stroke="white" stroke-width="4" stroke-miterlimit="10" stroke-linecap="round" stroke-linejoin="round"/>
<path d="M21.5704 15.4744H19.1338V30.7539H21.5704V15.4744Z" fill="white"/>
<path d="M48.7159 1.08212H46.2793V16.8216H48.7159V1.08212Z" fill="white"/>
<path d="M48.7159 44.2643H46.2793V57.7692H48.7159V44.2643Z" fill="white"/>
<path d="M75.855 30.7594H73.4185V44.2643H75.855V30.7594Z" fill="white"/>
</g>
<defs>
<clipPath id="clip0">
<rect width="95" height="101" fill="white"/>
</clipPath>
</defs>
</svg>
